<svg xmlns="http://www.w3.org/2000/svg" viewBox="0 0 260.1 224.78"><defs><style>.cls-1,.cls-2{fill:#fff;}.cls-2{fill-rule:evenodd;}</style></defs><g id="Warstwa_2" data-name="Warstwa 2"><g id="Warstwa_1-2" data-name="Warstwa 1"><rect class="cls-1" x="70.18" width="15.99" height="15.99"/><rect class="cls-1" x="73.2" y="27.1" width="26.02" height="26.02"/><path class="cls-2" d="M180.76,54.53c-4.06-4.17-11.54-11.37-10.87-16.18,2-14.31-6.09-24.45-19.63-31.76a47.2,47.2,0,0,0-25.15-5.25V1.21H99.22V27.1h25.49v26H99.22V79h25.71v24.47h25.68s2.52-6.84,4.61-9.44c2.62-3.26,11.69-1.63,16.33-2.51,9.56-1.79,2.81-10,3-11.42.21-2,4.58-2.27,3-5.19-.58-1-1.12-1-2.43-2.16,6.65-4.07-.57-5,.86-9.87.57-2,8.65-4.48,4.87-8.36"/><polygon class="cls-1" points="63.99 224.28 48.64 176.75 33.29 224.28 21.88 224.28 0 155.33 13.81 155.33 27.93 204.66 43.22 155.13 54.44 155.13 69.72 204.66 83.85 155.33 97.28 155.33 75.41 224.28 63.99 224.28"/><path class="cls-1" d="M134.66,224.78A43.72,43.72,0,0,1,106,214.27l8.13-9.74c7,5.59,13.58,8.19,20.79,8.19,6.71,0,10.87-2.82,10.87-7.36,0-4.82-3.15-6.9-14.67-9.85-15.33-3.91-22.62-8-22.62-20.65,0-12.36,9.53-20.53,23.73-20.53a39.7,39.7,0,0,1,24.94,8.29L150.05,173c-6.57-4.44-12.46-6.6-18-6.6-5.93,0-9.76,2.7-9.76,6.87,0,5.39,3.33,7,15.67,10.15,13.35,3.47,21.62,8.07,21.62,20.25,0,13.1-9.55,21.12-24.92,21.12"/><polygon class="cls-1" points="176.53 223.78 176.53 155.33 227.78 155.33 227.78 167.49 190.29 167.49 190.29 183.23 223.29 183.23 223.29 195.38 190.29 195.38 190.29 211.62 228.28 211.62 228.28 223.78 176.53 223.78"/><rect class="cls-1" x="246.24" y="155.33" width="13.86" height="68.45"/></g></g></svg>